<svg viewBox="0 0 145 46" xmlns="http://www.w3.org/2000/svg"><g fill="#fff"><path d="m54.13 19.56v3.94h-1.75v-2.5h-6.3v-8.57h1.81v7.06h3.16v-7.06h1.81v7.13zm2.87-7.13h2.67a5.52 5.52 0 0 1 2.59.48 1.78 1.78 0 0 1 .88 1.69 2.16 2.16 0 0 1 -.35 1.24 1.37 1.37 0 0 1 -1 .61v.06a2.44 2.44 0 0 1 .78.3 1.55 1.55 0 0 1 .55.63 2.51 2.51 0 0 1 .2 1.08 2.19 2.19 0 0 1 -.84 1.82 3.64 3.64 0 0 1 -2.3.66h-3.18zm1.82 3.4h1.05a1.77 1.77 0 0 0 1.13-.25.9.9 0 0 0 .32-.74.75.75 0 0 0 -.36-.7 2.23 2.23 0 0 0 -1.14-.22h-1zm0 1.44v2.23h1.18a1.6 1.6 0 0 0 1.14-.31 1.15 1.15 0 0 0 .33-.85 1 1 0 0 0 -.34-.77 1.75 1.75 0 0 0 -1.18-.3zm12.75 3.73h-4.93v-8.57h4.93v1.49h-3.12v1.88h2.9v1.49h-2.9v2.21h3.12zm6.64 0h-1.81v-7.06h-2.33v-1.51h6.47v1.51h-2.33zm5.21-8.57h1.63v4.14.67s0 .5 0 .74 0 .43 0 .61a2.5 2.5 0 0 1 0 .35l4-6.51h2.17v8.57h-1.7v-4.12c0-.21 0-.45 0-.7s0-.52 0-.76 0-.45 0-.62 0-.31 0-.36l-4 6.56h-2.1zm18.42 8.57h-2.06l-3.11-4.34v4.34h-1.81v-8.57h1.81v4.15l3.07-4.15h1.94l-3.12 4.12zm-52.12 7.82a1.84 1.84 0 0 0 -1.6.78 3.65 3.65 0 0 0 -.55 2.14 3.84 3.84 0 0 0 .5 2.12 1.86 1.86 0 0 0 1.65.75 4.55 4.55 0 0 0 1-.12 9.43 9.43 0 0 0 1.14-.34v1.53a6.16 6.16 0 0 1 -1.12.33 6.54 6.54 0 0 1 -1.23.11 4.09 4.09 0 0 1 -2.19-.54 3.37 3.37 0 0 1 -1.22-1.58 6.07 6.07 0 0 1 -.4-2.31 5.32 5.32 0 0 1 .46-2.29 3.64 3.64 0 0 1 1.36-1.56 4 4 0 0 1 2.2-.57 5.1 5.1 0 0 1 1.27.17 6.4 6.4 0 0 1 1.23.43l-.58 1.48a9.16 9.16 0 0 0 -1-.4 2.88 2.88 0 0 0 -.92-.13zm10.49 7.18h-4.93v-8.57h4.93v1.49h-3.12v1.88h2.91v1.49h-2.91v2.21h3.12zm7 0-2.06-6.72h-.05v.72c0 .32 0 .66.05 1s0 .69 0 1v4h-1.59v-8.57h2.44l2 6.55 2.15-6.55h2.47v8.57h-1.62v-4.06c0-.27 0-.58 0-.93s0-.69 0-1v-.72l-2.15 6.71zm9.26-8.57h1.63v4.14.67l-.1.76v.61s0 .28 0 .35l4-6.51h2.17v8.55h-1.64v-4.12c0-.21 0-.45 0-.7s0-.52 0-.76 0-.45 0-.62 0-.31 0-.36l-4 6.56h-2.09zm19.49 7.13v3.94h-1.79v-2.5h-6.3v-8.57h1.82v7.06h3.15v-7.06h1.81v7.13zm2.88-7.13h2.66a5.57 5.57 0 0 1 2.6.48 1.77 1.77 0 0 1 .87 1.69 2.08 2.08 0 0 1 -.35 1.24 1.35 1.35 0 0 1 -1 .61v.06a2.44 2.44 0 0 1 .78.3 1.48 1.48 0 0 1 .55.63 2.36 2.36 0 0 1 .21 1.08 2.19 2.19 0 0 1 -.84 1.82 3.65 3.65 0 0 1 -2.32.66h-3.2zm1.81 3.4h1.06a1.79 1.79 0 0 0 1.09-.25.9.9 0 0 0 .31-.74.75.75 0 0 0 -.36-.7 2.23 2.23 0 0 0 -1.14-.22h-1zm0 1.44v2.23h1.19a1.64 1.64 0 0 0 1.14-.31 1.14 1.14 0 0 0 .32-.85 1 1 0 0 0 -.33-.77 1.78 1.78 0 0 0 -1.19-.3zm12.71 3.73h-4.93v-8.57h4.93v1.49h-3.12v1.88h2.91v1.49h-2.91v2.21h3.12zm6.64 0h-1.82v-7.06h-2.32v-1.51h6.46v1.51h-2.32zm5.21-8.57h1.63v4.14.67.74.61s0 .28 0 .35l4-6.51h2.17v8.57h-1.62v-4.12c0-.21 0-.45 0-.7s0-.52 0-.76 0-.45 0-.62 0-.31 0-.36l-4 6.56h-2.18zm18.43 8.57h-2.07l-3.1-4.34v4.34h-1.82v-8.57h1.82v4.15l3.07-4.15h1.93l-3.12 4.12z"/><path d="m20.3 25.19h-.72a.2.2 0 0 0 -.19.19l-.05 20.2a.2.2 0 0 0 .19.19h.72a.21.21 0 0 0 .2-.19v-20.2a.2.2 0 0 0 -.15-.19z"/><path d="m25.26 15.66 4.13-2.26-4.85 2.65z"/><path d="m39 7-14.85-2.11-9.62 5.29 3.9 6.45a3.43 3.43 0 0 1 1.25-.24 3.55 3.55 0 0 1 .72.09 3.2 3.2 0 0 1 1.63 1l2.46-1.34 4.85-2.65 9.82-5.39a.56.56 0 0 0 -.16-1.1z"/><path d="m21.5 21.68a3.14 3.14 0 0 1 -1.77.53 3.56 3.56 0 0 1 -1.06-.2 3.09 3.09 0 0 1 -1.83-1.73l-6 3.42-.05-.1-.72.43-9.78 5.39a.54.54 0 0 0 .2 1l14.81 2.13 9.62-5.29z"/><path d="m18.47 16.63-3.89-6.45-.39-.62z"/><path d="m14.19 9.56-5.67-9.29a.58.58 0 0 0 -1.06.2l-2.31 14 5.58 9.19v.09l6.06-3.51a2.39 2.39 0 0 1 -.19-1 2.61 2.61 0 0 1 .4-1.32 3 3 0 0 1 1.44-1.29z"/><path d="m28.58 13.64-3.32 2-.72.39-2.46 1.37a2.92 2.92 0 0 1 .72 1.87 1.14 1.14 0 0 1 0 .34 3 3 0 0 1 -1.26 2.07l3.76 6.2 5.62 9.28a.58.58 0 0 0 1.02-.16l2.31-14z"/><path d="m17.42 38h-6.5a.42.42 0 0 0 -.43.29.36.36 0 0 0 .1.48l6.54 6.78a.34.34 0 0 0 .33.15.49.49 0 0 0 .49-.48v-6.71a.53.53 0 0 0 -.53-.51z"/><circle cx="19.73" cy="19.22" r="1.44"/></g></svg>