<svg id="Layer_1" data-name="Layer 1" xmlns="http://www.w3.org/2000/svg" viewBox="0 0 97.94 100.5"><defs><style>.cls-1{fill:#fff;}</style></defs><title>Artboard 1</title><path class="cls-1" d="M29.33,81.56V85.5H27.58V83h-6.3V74.43h1.81v7.06h3.16V74.43h1.81v7.13Zm2.89-7.13h2.66a5.52,5.52,0,0,1,2.59.48,1.76,1.76,0,0,1,.88,1.69A2.16,2.16,0,0,1,38,77.84a1.37,1.37,0,0,1-1,.61v.06a2.44,2.44,0,0,1,.78.3,1.55,1.55,0,0,1,.55.63,2.37,2.37,0,0,1,.2,1.08,2.19,2.19,0,0,1-.84,1.82,3.62,3.62,0,0,1-2.3.66h-3.2ZM34,77.83h1a1.83,1.83,0,0,0,1.1-.25.93.93,0,0,0,.31-.74.75.75,0,0,0-.36-.7A2.23,2.23,0,0,0,35,75.92H34Zm0,1.44V81.5h1.19a1.64,1.64,0,0,0,1.14-.31,1.18,1.18,0,0,0,.32-.85,1,1,0,0,0-.34-.77,1.75,1.75,0,0,0-1.18-.3ZM46.77,83H41.84V74.43h4.93v1.49H43.65V77.8h2.9v1.49h-2.9V81.5h3.12Zm6.64,0H51.6V75.94H49.27V74.43h6.47v1.51H53.41Zm5.21-8.57h1.63v4.14c0,.2,0,.43,0,.67s0,.5,0,.74,0,.43,0,.61a2.5,2.5,0,0,1,0,.35h0l4-6.51h2.17V83H64.72V78.88c0-.21,0-.45,0-.7s0-.52,0-.76,0-.45,0-.62,0-.31,0-.36h0l-4,6.56H58.62ZM77.05,83H75l-3.11-4.34V83H70.06V74.43h1.81v4.15L75,74.43h1.93l-3.12,4.12ZM4,90.82a1.84,1.84,0,0,0-1.6.78,4.55,4.55,0,0,0,0,4.26A1.84,1.84,0,0,0,4,96.61a4.55,4.55,0,0,0,1-.12,8.48,8.48,0,0,0,1.14-.34v1.53A5.84,5.84,0,0,1,5.09,98a6.65,6.65,0,0,1-1.24.11,4,4,0,0,1-2.18-.54A3.25,3.25,0,0,1,.41,96,6.07,6.07,0,0,1,0,93.73a5.32,5.32,0,0,1,.47-2.29,3.55,3.55,0,0,1,1.35-1.56A4,4,0,0,1,4,89.31a5,5,0,0,1,1.27.17,6.49,6.49,0,0,1,1.24.43l-.59,1.48A9,9,0,0,0,5,91,2.93,2.93,0,0,0,4,90.82ZM14.52,98H9.58V89.43h4.94v1.49H11.4V92.8h2.9v1.49H11.4V96.5h3.12Zm7,0-2.06-6.72h-.05l0,.72c0,.32,0,.66.05,1s0,.69,0,1v4H17.86V89.43h2.47l2,6.55h0l2.14-6.55H27V98h-1.7V93.94c0-.27,0-.58,0-.93s0-.69,0-1l0-.72h-.05L23.15,98Zm9.26-8.57h1.63v4.14c0,.2,0,.43,0,.67s0,.5,0,.74,0,.43,0,.61,0,.28,0,.35h0l4-6.51h2.18V98H36.84V93.88c0-.21,0-.45,0-.7s0-.52,0-.76,0-.45,0-.62,0-.31,0-.36h0l-4,6.56H30.74Zm19.49,7.13v3.94H48.48V98h-6.3V89.43H44v7.06h3.16V89.43H49v7.13Zm2.88-7.13h2.67a5.52,5.52,0,0,1,2.59.48,1.78,1.78,0,0,1,.88,1.69,2.16,2.16,0,0,1-.35,1.24,1.39,1.39,0,0,1-1,.61v.06a2.63,2.63,0,0,1,.78.3,1.55,1.55,0,0,1,.55.63,2.51,2.51,0,0,1,.2,1.08,2.19,2.19,0,0,1-.84,1.82,3.64,3.64,0,0,1-2.3.66H53.11Zm1.82,3.4h1a1.79,1.79,0,0,0,1.09-.25.9.9,0,0,0,.32-.74.75.75,0,0,0-.36-.7,2.23,2.23,0,0,0-1.14-.22h-1Zm0,1.44V96.5h1.18a1.6,1.6,0,0,0,1.14-.31,1.15,1.15,0,0,0,.33-.85,1,1,0,0,0-.34-.77,1.76,1.76,0,0,0-1.19-.3ZM67.67,98H62.74V89.43h4.93v1.49H64.55V92.8h2.9v1.49h-2.9V96.5h3.12Zm6.64,0H72.5V90.94H70.17V89.43h6.47v1.51H74.31Zm5.21-8.57h1.63v4.14c0,.2,0,.43,0,.67s0,.5,0,.74,0,.43,0,.61,0,.28,0,.35h0l4-6.51h2.18V98H85.62V93.88c0-.21,0-.45,0-.7s0-.52,0-.76,0-.45,0-.62,0-.31,0-.36h0L81.7,98H79.52ZM97.94,98H95.88l-3.11-4.34V98H91V89.43h1.81v4.15l3.07-4.15h1.93l-3.12,4.12Z"/><path class="cls-1" d="M51.18,28.61h-.82a.23.23,0,0,0-.21.22l-.06,23a.24.24,0,0,0,.22.21h.82a.24.24,0,0,0,.22-.21l0-23A.24.24,0,0,0,51.18,28.61Z"/><path class="cls-1" d="M56.81,17.79l4.7-2.57-5.52,3Z"/><path class="cls-1" d="M72.38,8,55.55,5.55l-10.92,6,4.42,7.33a4,4,0,0,1,1.42-.28,4.49,4.49,0,0,1,.82.11,3.68,3.68,0,0,1,1.86,1.09l2.79-1.53,5.52-3L72.6,9.16A.64.64,0,0,0,72.38,8Z"/><path class="cls-1" d="M52.55,24.62a3.57,3.57,0,0,1-2,.6,4.19,4.19,0,0,1-1.2-.22,3.47,3.47,0,0,1-2.08-2l-6.83,3.88-.05-.11-.82.49L28.46,33.42a.61.61,0,0,0,.21,1.15L45.5,37l10.93-6Z"/><path class="cls-1" d="M49.11,18.89l-4.43-7.33-.44-.71Z"/><path class="cls-1" d="M44.24,10.85,37.8.31a.65.65,0,0,0-1.2.22L34,16.48l6.34,10.44.06.11,6.88-4A2.94,2.94,0,0,1,47,21.89a2.88,2.88,0,0,1,.44-1.53,3.26,3.26,0,0,1,1.64-1.47Z"/><path class="cls-1" d="M60.58,15.5l-3.77,2.29-.82.44-2.78,1.53A3.33,3.33,0,0,1,54,21.89a1.13,1.13,0,0,1-.05.38,3.33,3.33,0,0,1-1.42,2.35l4.26,7.05L63.2,42.21A.66.66,0,0,0,64.41,42L67,26Z"/><path class="cls-1" d="M47.91,43.2H40.53a.47.47,0,0,0-.49.33.41.41,0,0,0,.11.54l7.43,7.71a.41.41,0,0,0,.38.16.55.55,0,0,0,.55-.55V43.74A.6.6,0,0,0,47.91,43.2Z"/><circle class="cls-1" cx="50.53" cy="21.84" r="1.64"/></svg>