<svg width="99" height="105" viewBox="0 0 99 105" fill="none" xmlns="http://www.w3.org/2000/svg">
<path d="M30.2105 85.1704V89.1064H28.4585V86.6104H22.1585V78.0424H23.9705V85.0984H27.1265V78.0424H28.9385V85.1704H30.2105ZM33.0935 78.0424H35.7575C36.9015 78.0424 37.7655 78.2024 38.3495 78.5224C38.9335 78.8424 39.2255 79.4064 39.2255 80.2144C39.2255 80.7024 39.1095 81.1144 38.8775 81.4504C38.6535 81.7864 38.3295 81.9904 37.9055 82.0624V82.1224C38.1935 82.1784 38.4535 82.2784 38.6855 82.4224C38.9175 82.5664 39.1015 82.7744 39.2375 83.0464C39.3735 83.3184 39.4415 83.6784 39.4415 84.1264C39.4415 84.9024 39.1615 85.5104 38.6015 85.9504C38.0415 86.3904 37.2735 86.6104 36.2975 86.6104H33.0935V78.0424ZM34.9055 81.4384H35.9615C36.4895 81.4384 36.8535 81.3544 37.0535 81.1864C37.2615 81.0184 37.3655 80.7744 37.3655 80.4544C37.3655 80.1264 37.2455 79.8904 37.0055 79.7464C36.7655 79.6024 36.3855 79.5304 35.8655 79.5304H34.9055V81.4384ZM34.9055 82.8784V85.1104H36.0935C36.6375 85.1104 37.0175 85.0064 37.2335 84.7984C37.4495 84.5824 37.5575 84.2984 37.5575 83.9464C37.5575 83.6264 37.4455 83.3704 37.2215 83.1784C37.0055 82.9784 36.6095 82.8784 36.0335 82.8784H34.9055ZM47.648 86.6104H42.716V78.0424H47.648V79.5304H44.528V81.4144H47.432V82.9024H44.528V85.1104H47.648V86.6104ZM54.2909 86.6104H52.4789V79.5544H50.1509V78.0424H56.6189V79.5544H54.2909V86.6104ZM59.5001 78.0424H61.1321V82.1824C61.1321 82.3824 61.1281 82.6064 61.1201 82.8544C61.1121 83.1024 61.1041 83.3464 61.0961 83.5864C61.0881 83.8184 61.0801 84.0224 61.0721 84.1984C61.0641 84.3664 61.0561 84.4824 61.0481 84.5464H61.0841L65.0441 78.0424H67.2161V86.6104H65.5961V82.4944C65.5961 82.2784 65.6001 82.0424 65.6081 81.7864C65.6161 81.5224 65.6241 81.2704 65.6321 81.0304C65.6481 80.7904 65.6601 80.5824 65.6681 80.4064C65.6841 80.2224 65.6961 80.1024 65.7041 80.0464H65.6561L61.6841 86.6104H59.5001V78.0424ZM77.923 86.6104H75.859L72.751 82.2664V86.6104H70.939V78.0424H72.751V82.1944L75.823 78.0424H77.755L74.635 82.1584L77.923 86.6104ZM4.89717 94.4344C4.20117 94.4344 3.66917 94.6944 3.30117 95.2144C2.93317 95.7344 2.74917 96.4464 2.74917 97.3504C2.74917 98.2624 2.91717 98.9704 3.25317 99.4744C3.59717 99.9704 4.14517 100.218 4.89717 100.218C5.24917 100.218 5.59717 100.178 5.94117 100.098C6.29317 100.018 6.67317 99.9064 7.08117 99.7624V101.286C6.70517 101.438 6.33317 101.55 5.96517 101.622C5.59717 101.694 5.18517 101.73 4.72917 101.73C3.84917 101.73 3.12117 101.55 2.54517 101.19C1.97717 100.822 1.55717 100.31 1.28517 99.6544C1.01317 98.9904 0.877171 98.2184 0.877171 97.3384C0.877171 96.4744 1.03317 95.7104 1.34517 95.0464C1.65717 94.3824 2.10917 93.8624 2.70117 93.4864C3.30117 93.1104 4.03317 92.9224 4.89717 92.9224C5.32117 92.9224 5.74517 92.9784 6.16917 93.0904C6.60117 93.1944 7.01317 93.3384 7.40517 93.5224L6.81717 94.9984C6.49717 94.8464 6.17317 94.7144 5.84517 94.6024C5.52517 94.4904 5.20917 94.4344 4.89717 94.4344ZM15.3938 101.61H10.4618V93.0424H15.3938V94.5304H12.2738V96.4144H15.1778V97.9024H12.2738V100.11H15.3938V101.61ZM22.3606 101.61L20.2966 94.8904H20.2486C20.2566 95.0504 20.2686 95.2904 20.2846 95.6104C20.3006 95.9304 20.3166 96.2744 20.3326 96.6424C20.3486 97.0024 20.3566 97.3304 20.3566 97.6264V101.61H18.7366V93.0424H21.2086L23.2366 99.5944H23.2726L25.4206 93.0424H27.8926V101.61H26.2006V97.5544C26.2006 97.2824 26.2046 96.9704 26.2126 96.6184C26.2286 96.2664 26.2406 95.9344 26.2486 95.6224C26.2646 95.3024 26.2766 95.0624 26.2846 94.9024H26.2366L24.0286 101.61H22.3606ZM31.617 93.0424H33.249V97.1824C33.249 97.3824 33.245 97.6064 33.237 97.8544C33.229 98.1024 33.221 98.3464 33.213 98.5864C33.205 98.8184 33.197 99.0224 33.189 99.1984C33.181 99.3664 33.173 99.4824 33.165 99.5464H33.201L37.161 93.0424H39.333V101.61H37.713V97.4944C37.713 97.2784 37.717 97.0424 37.725 96.7864C37.733 96.5224 37.741 96.2704 37.749 96.0304C37.765 95.7904 37.777 95.5824 37.785 95.4064C37.801 95.2224 37.813 95.1024 37.821 95.0464H37.773L33.801 101.61H31.617V93.0424ZM51.1079 100.17V104.106H49.3559V101.61H43.0559V93.0424H44.8679V100.098H48.0239V93.0424H49.8359V100.17H51.1079ZM53.9909 93.0424H56.6549C57.7989 93.0424 58.6629 93.2024 59.2469 93.5224C59.8309 93.8424 60.1229 94.4064 60.1229 95.2144C60.1229 95.7024 60.0069 96.1144 59.7749 96.4504C59.5509 96.7864 59.2269 96.9904 58.8029 97.0624V97.1224C59.0909 97.1784 59.3509 97.2784 59.5829 97.4224C59.8149 97.5664 59.9989 97.7744 60.1349 98.0464C60.2709 98.3184 60.3389 98.6784 60.3389 99.1264C60.3389 99.9024 60.0589 100.51 59.4989 100.95C58.9389 101.39 58.1709 101.61 57.1949 101.61H53.9909V93.0424ZM55.8029 96.4384H56.8589C57.3869 96.4384 57.7509 96.3544 57.9509 96.1864C58.1589 96.0184 58.2629 95.7744 58.2629 95.4544C58.2629 95.1264 58.1429 94.8904 57.9029 94.7464C57.6629 94.6024 57.2829 94.5304 56.7629 94.5304H55.8029V96.4384ZM55.8029 97.8784V100.11H56.9909C57.5349 100.11 57.9149 100.006 58.1309 99.7984C58.3469 99.5824 58.4549 99.2984 58.4549 98.9464C58.4549 98.6264 58.3429 98.3704 58.1189 98.1784C57.9029 97.9784 57.5069 97.8784 56.9309 97.8784H55.8029ZM68.5454 101.61H63.6134V93.0424H68.5454V94.5304H65.4254V96.4144H68.3294V97.9024H65.4254V100.11H68.5454V101.61ZM75.1882 101.61H73.3762V94.5544H71.0482V93.0424H77.5162V94.5544H75.1882V101.61ZM80.3974 93.0424H82.0294V97.1824C82.0294 97.3824 82.0254 97.6064 82.0174 97.8544C82.0094 98.1024 82.0014 98.3464 81.9934 98.5864C81.9854 98.8184 81.9774 99.0224 81.9694 99.1984C81.9614 99.3664 81.9534 99.4824 81.9454 99.5464H81.9814L85.9414 93.0424H88.1134V101.61H86.4934V97.4944C86.4934 97.2784 86.4974 97.0424 86.5054 96.7864C86.5134 96.5224 86.5214 96.2704 86.5294 96.0304C86.5454 95.7904 86.5574 95.5824 86.5654 95.4064C86.5814 95.2224 86.5934 95.1024 86.6014 95.0464H86.5534L82.5814 101.61H80.3974V93.0424ZM98.8203 101.61H96.7563L93.6483 97.2664V101.61H91.8363V93.0424H93.6483V97.1944L96.7203 93.0424H98.6523L95.5323 97.1584L98.8203 101.61Z" fill="white"/>
<path d="M50.0943 32.5405H49.167C49.0434 32.5405 48.9197 32.6642 48.9197 32.7878L48.8579 58.7527C48.8579 58.8763 48.9816 59 49.1052 59H50.0325C50.1562 59 50.2798 58.8763 50.2798 58.7527L50.3416 32.7878C50.3416 32.6642 50.218 32.5405 50.0943 32.5405Z" fill="white"/>
<path d="M56.462 20.3001L61.7786 17.3945L55.5347 20.7947L56.462 20.3001Z" fill="white"/>
<path d="M74.0809 9.17228L55.04 6.45215L42.6758 13.2525L47.6833 21.5365C48.1779 21.351 48.7343 21.2274 49.2906 21.2274C49.5998 21.2274 49.9089 21.2892 50.218 21.351C51.0216 21.5365 51.7635 21.9693 52.3199 22.5875L55.4728 20.8565L61.7167 17.4563L74.3282 10.5323C74.9464 10.1614 74.761 9.29592 74.0809 9.17228Z" fill="white"/>
<path d="M51.6397 28.0277C51.0215 28.4604 50.2178 28.7077 49.3523 28.7077C48.8577 28.7077 48.425 28.5841 47.9922 28.4604C46.9413 28.0895 46.0758 27.2858 45.643 26.2349L37.9154 30.6242L37.8536 30.5005L36.9262 31.0569L24.3765 37.9809C23.7583 38.29 23.9438 39.1555 24.6238 39.2791L43.6648 41.9993L56.029 35.1989L51.6397 28.0277Z" fill="white"/>
<path d="M47.7448 21.5364L42.7372 13.2524L42.2427 12.4487L47.7448 21.5364Z" fill="white"/>
<path d="M42.243 12.4489L34.9481 0.517389C34.5772 -0.0390011 33.7117 0.0846412 33.588 0.764674L30.6206 18.8165L37.7919 30.6243L37.8537 30.7479L45.6431 26.235C45.4577 25.8022 45.3959 25.3695 45.3959 24.9367C45.3959 24.3185 45.5813 23.7003 45.8904 23.2058C46.3232 22.4639 46.9414 21.8457 47.7451 21.5366L42.243 12.4489Z" fill="white"/>
<path d="M60.7274 17.7036L56.4617 20.3001L55.5344 20.7947L52.3815 22.5257C52.9379 23.2057 53.3088 24.0094 53.3088 24.9367C53.3088 25.0603 53.3088 25.184 53.247 25.3694C53.1234 26.4822 52.5051 27.4095 51.6396 28.0277L56.4617 36.0027L63.6948 47.9342C64.0657 48.4906 64.9312 48.3669 65.0548 47.6869L68.0223 29.6351L60.7274 17.7036Z" fill="white"/>
<path d="M46.385 49.0469H38.0392C37.7919 49.0469 37.5446 49.1705 37.4828 49.4178C37.3591 49.6651 37.421 49.8505 37.6064 50.036L46.0141 58.7528C46.1377 58.9383 46.3232 58.9383 46.4469 58.9383C46.756 58.9383 47.0651 58.691 47.0651 58.32V49.6651C47.0651 49.356 46.756 49.0469 46.385 49.0469Z" fill="white"/>
<circle cx="49.3522" cy="24.8957" r="1.85463" fill="white"/>
</svg>
