<svg id="Layer_1" data-name="Layer 1" xmlns="http://www.w3.org/2000/svg" viewBox="0 0 97.94 145.5"><defs><style>.cls-1{fill:#fff;}</style></defs><title>Artboard 1</title><path class="cls-1" d="M29.33,126.56v3.94H27.58V128h-6.3v-8.57h1.81v7.06h3.16v-7.06h1.81v7.13Zm2.89-7.13h2.66a5.52,5.52,0,0,1,2.59.48,1.76,1.76,0,0,1,.88,1.69,2.16,2.16,0,0,1-.35,1.24,1.37,1.37,0,0,1-1,.61v.06a2.44,2.44,0,0,1,.78.3,1.55,1.55,0,0,1,.55.63,2.37,2.37,0,0,1,.2,1.08,2.19,2.19,0,0,1-.84,1.82,3.62,3.62,0,0,1-2.3.66h-3.2Zm1.81,3.4h1a1.83,1.83,0,0,0,1.1-.25.93.93,0,0,0,.31-.74.75.75,0,0,0-.36-.7,2.23,2.23,0,0,0-1.14-.22H34Zm0,1.44v2.23h1.19a1.64,1.64,0,0,0,1.14-.31,1.18,1.18,0,0,0,.32-.85,1,1,0,0,0-.34-.77,1.75,1.75,0,0,0-1.18-.3ZM46.77,128H41.84v-8.57h4.93v1.49H43.65v1.88h2.9v1.49h-2.9v2.21h3.12Zm6.64,0H51.6v-7.06H49.27v-1.51h6.47v1.51H53.41Zm5.21-8.57h1.63v4.14c0,.2,0,.43,0,.67s0,.5,0,.74,0,.43,0,.61a2.5,2.5,0,0,1,0,.35h0l4-6.51h2.17V128H64.72v-4.12c0-.21,0-.45,0-.7s0-.52,0-.76,0-.45,0-.62,0-.31,0-.36h0l-4,6.56H58.62ZM77.05,128H75l-3.11-4.34V128H70.06v-8.57h1.81v4.15L75,119.43h1.93l-3.12,4.12ZM4,135.82a1.84,1.84,0,0,0-1.6.78,4.55,4.55,0,0,0,0,4.26,1.84,1.84,0,0,0,1.64.75,4.55,4.55,0,0,0,1-.12,8.48,8.48,0,0,0,1.14-.34v1.53a5.84,5.84,0,0,1-1.11.33,6.65,6.65,0,0,1-1.24.11,4,4,0,0,1-2.18-.54A3.25,3.25,0,0,1,.41,141,6.07,6.07,0,0,1,0,138.73a5.32,5.32,0,0,1,.47-2.29,3.55,3.55,0,0,1,1.35-1.56,4,4,0,0,1,2.2-.57,5,5,0,0,1,1.27.17,6.49,6.49,0,0,1,1.24.43l-.59,1.48a9,9,0,0,0-1-.4A2.93,2.93,0,0,0,4,135.82ZM14.52,143H9.58v-8.57h4.94v1.49H11.4v1.88h2.9v1.49H11.4v2.21h3.12Zm7,0-2.06-6.72h-.05l0,.72c0,.32,0,.66.05,1s0,.69,0,1v4H17.86v-8.57h2.47l2,6.55h0l2.14-6.55H27V143h-1.7v-4.06c0-.27,0-.58,0-.93s0-.69,0-1l0-.72h-.05L23.15,143Zm9.26-8.57h1.63v4.14c0,.2,0,.43,0,.67s0,.5,0,.74,0,.43,0,.61,0,.28,0,.35h0l4-6.51h2.18V143H36.84v-4.12c0-.21,0-.45,0-.7s0-.52,0-.76,0-.45,0-.62,0-.31,0-.36h0l-4,6.56H30.74Zm19.49,7.13v3.94H48.48V143h-6.3v-8.57H44v7.06h3.16v-7.06H49v7.13Zm2.88-7.13h2.67a5.52,5.52,0,0,1,2.59.48,1.78,1.78,0,0,1,.88,1.69,2.16,2.16,0,0,1-.35,1.24,1.39,1.39,0,0,1-1,.61v.06a2.63,2.63,0,0,1,.78.3,1.55,1.55,0,0,1,.55.63,2.51,2.51,0,0,1,.2,1.08,2.19,2.19,0,0,1-.84,1.82,3.64,3.64,0,0,1-2.3.66H53.11Zm1.82,3.4h1a1.79,1.79,0,0,0,1.09-.25.9.9,0,0,0,.32-.74.75.75,0,0,0-.36-.7,2.23,2.23,0,0,0-1.14-.22h-1Zm0,1.44v2.23h1.18a1.6,1.6,0,0,0,1.14-.31,1.15,1.15,0,0,0,.33-.85,1,1,0,0,0-.34-.77,1.76,1.76,0,0,0-1.19-.3ZM67.67,143H62.74v-8.57h4.93v1.49H64.55v1.88h2.9v1.49h-2.9v2.21h3.12Zm6.64,0H72.5v-7.06H70.17v-1.51h6.47v1.51H74.31Zm5.21-8.57h1.63v4.14c0,.2,0,.43,0,.67s0,.5,0,.74,0,.43,0,.61,0,.28,0,.35h0l4-6.51h2.18V143H85.62v-4.12c0-.21,0-.45,0-.7s0-.52,0-.76,0-.45,0-.62,0-.31,0-.36h0l-4,6.56H79.52ZM97.94,143H95.88l-3.11-4.34V143H91v-8.57h1.81v4.15l3.07-4.15h1.94l-3.12,4.12Z"/><path class="cls-1" d="M49.33,52.37h-1.5a.43.43,0,0,0-.4.4l-.1,42a.43.43,0,0,0,.4.4h1.5a.43.43,0,0,0,.4-.4l.1-42A.43.43,0,0,0,49.33,52.37Z"/><path class="cls-1" d="M59.63,32.57l8.6-4.7-10.1,5.5Z"/><path class="cls-1" d="M88.13,14.57l-30.8-4.4-20,11,8.1,13.4a7.51,7.51,0,0,1,2.6-.5,7.72,7.72,0,0,1,1.5.2,6.58,6.58,0,0,1,3.4,2l5.1-2.8L68.13,28l20.4-11.2A1.18,1.18,0,0,0,88.13,14.57Z"/><path class="cls-1" d="M51.83,45.07a6.47,6.47,0,0,1-3.7,1.1,7.8,7.8,0,0,1-2.2-.4,6.42,6.42,0,0,1-3.8-3.6l-12.5,7.1-.1-.2L28,50,7.73,61.17a1.12,1.12,0,0,0,.4,2.1l30.8,4.4,20-11Z"/><path class="cls-1" d="M45.53,34.57l-8.1-13.4-.8-1.3Z"/><path class="cls-1" d="M36.63,19.87,24.83.57a1.2,1.2,0,0,0-2.2.4l-4.8,29.2,11.6,19.1.1.2,12.6-7.3a5.22,5.22,0,0,1-.4-2.1,5.38,5.38,0,0,1,.8-2.8,6.06,6.06,0,0,1,3-2.7Z"/><path class="cls-1" d="M66.53,28.37l-6.9,4.2-1.5.8L53,36.17a6.1,6.1,0,0,1,1.5,3.9,2,2,0,0,1-.1.7,6.11,6.11,0,0,1-2.6,4.3L59.63,58l11.7,19.3a1.2,1.2,0,0,0,2.2-.4l4.8-29.2Z"/><path class="cls-1" d="M43.33,79.07H29.83a.87.87,0,0,0-.9.6.78.78,0,0,0,.2,1l13.6,14.1a.74.74,0,0,0,.7.3,1,1,0,0,0,1-1v-14A1.1,1.1,0,0,0,43.33,79.07Z"/><circle class="cls-1" cx="48.13" cy="39.97" r="3"/></svg>