<svg id="Layer_1" data-name="Layer 1" xmlns="http://www.w3.org/2000/svg" viewBox="0 0 34 34"><defs><style>.cls-1{fill:none}</style></defs><path class="cls-1" d="M23.26 10.36a3.72 3.72 0 00-1.39-.92A5.46 5.46 0 0020 9.07C19.16 9 18.89 9 16.81 9H13.6a6.62 6.62 0 00-1.92.44 3.93 3.93 0 00-1.39.92 3.84 3.84 0 00-.89 1.42 5.83 5.83 0 00-.4 1.93v6.58a5.83 5.83 0 00.4 1.93 4.06 4.06 0 00.89 1.42 3.72 3.72 0 001.39.92 5.29 5.29 0 001.88.37H20a5.3 5.3 0 001.89-.37 4.16 4.16 0 001.39-.92 3.84 3.84 0 00.89-1.42 5.79 5.79 0 00.36-1.93v-6.58a5.55 5.55 0 00-.36-1.93 4.06 4.06 0 00-.91-1.42zm-.1 6.64v3.22a5.37 5.37 0 01-.27 1.49 2 2 0 01-.59.91 2.52 2.52 0 01-.9.61 4.2 4.2 0 01-1.45.28h-6.29a4.45 4.45 0 01-1.45-.28 1.83 1.83 0 01-.89-.61 2.77 2.77 0 01-.6-.91 4.45 4.45 0 01-.26-1.49v-6.47a5 5 0 01.26-1.49 2 2 0 01.6-.92 2.72 2.72 0 01.89-.61 4.54 4.54 0 011.45-.27H20a4.83 4.83 0 011.45.27 2.07 2.07 0 01.9.61 2.64 2.64 0 01.59.92 4.73 4.73 0 01.27 1.49z"/><path class="cls-1" d="M20.94 11.73a.92.92 0 00-.92.86.93.93 0 101.85.14v-.09a.91.91 0 00-.93-.91zM16.8 12.9a4 4 0 00-4 4v.1a4 4 0 003.9 4.1h.1a4.1 4.1 0 000-8.2zm0 6.74a2.64 2.64 0 112.58-2.7V17a2.61 2.61 0 01-2.57 2.64z"/><path class="cls-1" d="M17 1a16 16 0 1016 16A16 16 0 0017 1zm0 31a15 15 0 1115-15 15 15 0 01-15 15zM16.8 12.9h.01-.01z"/><path d="M17 0a17 17 0 1017 17A17 17 0 0017 0zm0 33a16 16 0 1116-16 16 16 0 01-16 16z"/><path d="M22.3 11.34a2.07 2.07 0 00-.9-.61 4.83 4.83 0 00-1.4-.27h-6.34a4.54 4.54 0 00-1.45.27 2.72 2.72 0 00-.89.61 2 2 0 00-.6.92 5 5 0 00-.26 1.49v6.44a4.45 4.45 0 00.26 1.49 2.77 2.77 0 00.6.91 1.83 1.83 0 00.89.61 4.45 4.45 0 001.45.28H20a4.2 4.2 0 001.45-.28 2.52 2.52 0 00.9-.61 2 2 0 00.59-.91 5.37 5.37 0 00.27-1.49v-6.44a4.73 4.73 0 00-.27-1.49 2.64 2.64 0 00-.64-.92zm-5.5 9.76h-.1a4 4 0 01-3.9-4.1v-.11a4 4 0 014-4 4.1 4.1 0 010 8.2zm5.07-8.37a.93.93 0 11-1.87-.14.93.93 0 011.85.05z"/><path d="M16.69 14.36a2.64 2.64 0 00.12 5.28A2.61 2.61 0 0019.39 17v-.06a2.64 2.64 0 00-2.7-2.58z"/><path d="M17 2a15 15 0 1015 15A15 15 0 0017 2zm7.51 15v3.29a5.79 5.79 0 01-.36 1.93 3.84 3.84 0 01-.89 1.42 4.16 4.16 0 01-1.39.92 5.3 5.3 0 01-1.89.37h-6.42a5.29 5.29 0 01-1.88-.37 3.72 3.72 0 01-1.39-.92 4.06 4.06 0 01-.89-1.42 5.83 5.83 0 01-.4-1.93v-6.58a5.83 5.83 0 01.4-1.93 3.84 3.84 0 01.89-1.42 3.93 3.93 0 011.39-.92A6.62 6.62 0 0113.6 9h3.21c2.08 0 2.35 0 3.19.07a5.46 5.46 0 011.87.37 3.72 3.72 0 011.39.92 4.06 4.06 0 01.89 1.42 5.55 5.55 0 01.36 1.93z"/></svg>