<svg xmlns="http://www.w3.org/2000/svg" viewBox="0 0 34 34"><path d="M17 0a17 17 0 1017 17A17 17 0 0017 0zm0 33a16 16 0 1116-16 16 16 0 01-16 16z"/><path d="M17 2a15 15 0 1015 15A15 15 0 0017 2zm7.53 14.53a7.7 7.7 0 01-7.64 7.76 7.57 7.57 0 01-3.71-1L9 24.69l1.39-4.16a7.76 7.76 0 01-1.09-4v-.34a7.64 7.64 0 0115.28.13z"/><path d="M16.85 10a6.48 6.48 0 00-6.38 5.89 4.72 4.72 0 000 .65 6.69 6.69 0 001.22 3.83l-.79 2.44 2.45-.81a6.41 6.41 0 003.54 1.09 6.48 6.48 0 006.42-6.54v-.51A6.48 6.48 0 0016.85 10zm3.78 9.21a1.88 1.88 0 01-1.26.92c-.33 0-.33.27-2.25-.47a7.75 7.75 0 01-3.21-2.89 5 5 0 01-.66-1.32 2 2 0 01-.1-.64 2.19 2.19 0 01.66-1.59.61.61 0 01.5-.24h.36c.1 0 .27-.07.43.31s.56 1.32.6 1.42a.44.44 0 010 .34 1.17 1.17 0 00-.13.24s0 .06-.07.1-.2.24-.3.34a.29.29 0 00-.06.37 4.83 4.83 0 001 1.32 5.26 5.26 0 001.52.95c.17.1.3.1.4 0s.46-.54.59-.75.27-.17.43-.1 1.1.51 1.29.61a1.22 1.22 0 01.34.17 1.44 1.44 0 01-.08.9z"/></svg>